<svg height="448pt" viewBox="0 0 448 448" width="448pt" xmlns="http://www.w3.org/2000/svg"><path d="m448 408c-.027344 22.082031-17.917969 39.972656-40 40h-368c-22.082031-.027344-39.9726562-17.917969-40-40v-32h448zm0 0"/><path d="m296 0h-144c-80.800781.0976562-147.4375 63.316406-151.792969 144h447.585938c-4.355469-80.683594-70.992188-143.9023438-151.792969-144zm-160 72h-16v-16h16zm24-32h-16v-16h16zm24 32h-16v-16h16zm24-32h-16v-16h16zm24 32h-16v-16h16zm24-32h-16v-16h16zm24 32h-16v-16h16zm24-32h-16v-16h16zm24 32h-16v-16h16zm0 0"/><path d="m40 328c-22.089844 0-40-17.910156-40-40s17.910156-40 40-40h93.464844l113.328125 80zm121.207031-80h221.601563l-110.808594 78.207031zm246.792969 80h-110.792969l113.015625-79.777344c21.566406 1.222656 38.25 19.378906 37.648438 40.96875-.605469 21.59375-18.269532 38.789063-39.871094 38.808594zm0 0"/><path d="m448 178.601562c-7.378906 2.425782-14.09375 6.535157-19.617188 12-13.550781 13.285157-35.246093 13.285157-48.796874 0-19.789063-19.355468-51.414063-19.355468-71.203126 0-13.550781 13.285157-35.246093 13.285157-48.796874 0-19.789063-19.355468-51.414063-19.355468-71.203126 0-13.550781 13.285157-35.246093 13.285157-48.796874 0-19.789063-19.355468-51.414063-19.355468-71.203126 0-13.550781 13.285157-35.246093 13.285157-48.796874 0-5.515626-5.460937-12.21875-9.570312-19.585938-12v17.4375c3.074219 1.542969 5.902344 3.539063 8.382812 5.921876 19.789063 19.355468 51.414063 19.355468 71.203126 0 13.550781-13.292969 35.246093-13.292969 48.796874 0 19.789063 19.355468 51.414063 19.355468 71.203126 0 13.550781-13.292969 35.246093-13.292969 48.796874 0 19.785157 19.359374 51.414063 19.359374 71.203126 0 13.550781-13.292969 35.246093-13.292969 48.796874 0 19.789063 19.355468 51.414063 19.355468 71.203126 0 2.488281-2.386719 5.328124-4.382813 8.414062-5.921876zm0 0"/></svg>