<svg height="447pt" viewBox="0 0 447.63506 447" width="447pt" xmlns="http://www.w3.org/2000/svg"><path d="m289.003906 132.996094c-1.03125-1.007813-2.148437-1.921875-3.335937-2.734375-.351563-.238281-.714844-.449219-1.074219-.671875-.878906-.546875-1.796875-1.03125-2.742188-1.457032-.382812-.175781-.800781-.359374-1.160156-.511718-1.277344-.507813-2.59375-.90625-3.9375-1.191406-.167968 0-.335937 0-.496094-.054688-1.207031-.21875-2.429687-.335938-3.65625-.363281-.453124 0-.917968 0-1.375 0-.976562.035156-1.953124.128906-2.917968.28125-.425782.074219-.847656.121093-1.273438.214843-1.386718.28125-2.742187.683594-4.054687 1.210938l-170.847657 69.597656c-.25.105469-.503906.195313-.761718.265625-8.21875 2.429688-16.167969 5.679688-23.734375 9.703125-.226563.121094-.691407.328125-.929688.425782-13.9375 7.621093-26.34375 17.75-36.601562 29.878906l13.417969 14.335937c29.035156 30.886719 73.355468 42.125 113.601562 28.800781 32.585938-10.792968 68.171875-7.761718 98.460938 8.390626 7 3.746093 13.480468 7.199218 18.226562 9.769531l46.398438-113.890625c3.644531-8.941406 1.574218-19.203125-5.257813-26.03125zm-185.367187 99.320312h-16v-16h16zm72 24h-16v-16h16zm72-80h-16v-16h16zm32 64h-16v-16h16zm0 0"/><path d="m162.179688 295.902344c-46.179688 15.285156-97.03125 2.398437-130.351563-33.039063l-11.570313-12.363281c-25.300781 39.449219-27.023437 89.566406-4.488281 130.660156 22.535157 41.089844 65.722657 66.578125 112.585938 66.449219s89.910156-25.859375 112.214843-67.074219l7.199219 3.558594-7.0625-3.761719c4.015625-7.574219 7.253907-15.535156 9.671875-23.757812.082032-.25.167969-.503907.265625-.753907l17.132813-42.054687-19.703125-10.558594c-26.425781-14.09375-57.46875-16.734375-85.894531-7.304687zm0 0"/><path d="m437.132812 45.667969c-3.03125-2.519531-6.632812-4.265625-10.488281-5.085938-9.859375-1.695312-17.582031-9.421875-19.273437-19.28125-.824219-3.855469-2.570313-7.453125-5.089844-10.488281-4.316406-6.179688-11.222656-10.046875-18.75-10.496094h-.238281c-13.101563.234375-23.613281 10.898438-23.65625 24-.023438 3.652344.800781 7.257813 2.398437 10.539063 4.335938 9.285156 2.296875 20.304687-5.082031 27.421875l-58.007813 58.039062 1.371094 1.367188 25.949219 25.953125 1.371094 1.367187 58.039062-58.039062c7.117188-7.371094 18.128907-9.414063 27.414063-5.078125 3.28125 1.605469 6.890625 2.4375 10.546875 2.429687 13.097656-.050781 23.757812-10.554687 24-23.65625-.367188-7.617187-4.246094-14.632812-10.503907-18.992187zm0 0"/></svg>