<svg height="444pt" viewBox="-47 0 444 444.904" width="444pt" xmlns="http://www.w3.org/2000/svg"><path d="m215.402344 44.902344v-18.230469l-32-10.671875v201.320312c11.085937-1.160156 21.898437-4.152343 32-8.855468zm0 0"/><path d="m255.140625 175.519531c2.523437-3.515625 5.285156-6.855469 8.261719-9.992187v-125.527344l-32 10.671875v148.535156c9.164062-6.535156 17.183594-14.539062 23.738281-23.6875zm0 0"/><path d="m167.402344 4.902344v-4.902344l-32 10.671875v200.273437c10.230468 3.980469 21.039062 6.269532 32 6.773438zm0 0"/><path d="m311.402344 82.671875-32-10.671875v80c9.714844-6.496094 20.574218-11.09375 32-13.542969zm0 0"/><path d="m91.851562 178.039062c7.574219 9.933594 16.914063 18.390626 27.550782 24.9375v-152.304687l-32-10.671875v132.359375c.554687.679687 1.128906 1.328125 1.664062 2.023437zm0 0"/><path d="m349.804688 154.753906c-30.816407-7.828125-63.273438 4.121094-81.65625 30.0625-21.679688 30.351563-56.488282 48.605469-93.785157 49.179688-37.292969.578125-72.648437-16.589844-95.253906-46.261719l-2.785156-3.65625c-17.65625-23.398437-47.097657-34.699219-75.871094-29.117187l45.78125 289.941406h258.335937l45.785157-290.015625zm-318.289063 51.460938 15.777344-2.621094 2.664062 16-15.777343 2.621094zm16 96-10.664063-64 15.777344-2.640625 10.664063 64zm0 0"/><path d="m71.402344 64-32 10.671875v66.175781c11.601562 3.15625 22.472656 8.550782 32 15.878906zm0 0"/></svg>