<svg height="448pt" viewBox="0 -88 448 448" width="448pt" xmlns="http://www.w3.org/2000/svg"><path d="m328 232c-.019531-3.238281-1.980469-6.144531-4.96875-7.382812-2.992188-1.238282-6.433594-.5625-8.734375 1.710937-1.480469 1.484375-2.308594 3.5-2.296875 5.601563.046875 6.367187-2.449219 12.488281-6.9375 17.007812-4.484375 4.519531-10.589844 7.0625-16.957031 7.0625-13.285157.03125-24.078125-10.714844-24.105469-24v-40h-263.640625c4.191406 45.289062 42.160156 79.945312 87.640625 80h241.472656c-.949218-2.5625-1.445312-5.269531-1.472656-8zm0 0"/><path d="m280 232c.019531 3.238281 1.980469 6.144531 4.96875 7.382812 2.992188 1.238282 6.433594.5625 8.734375-1.710937 1.480469-1.484375 2.308594-3.5 2.296875-5.601563-.046875-6.367187 2.449219-12.488281 6.9375-17.007812 4.484375-4.519531 10.589844-7.0625 16.957031-7.0625 13.285157-.03125 24.078125 10.714844 24.105469 24v32c0 4.417969 3.582031 8 8 8s8-3.582031 8-8v-72h-80zm0 0"/><path d="m408 80h39.640625c-4.191406-45.289062-42.160156-79.9453125-87.640625-80h-272c-45.480469.0546875-83.449219 34.710938-87.640625 80zm0 0"/><path d="m376 192v72c-.035156 2.261719-.390625 4.503906-1.054688 6.664062 39.210938-6.800781 69.003907-39.035156 72.695313-78.664062zm0 0"/><path d="m448 136c-.027344-22.082031-17.917969-39.972656-40-40h-368c-22.089844 0-40 17.910156-40 40s17.910156 40 40 40h368c22.082031-.027344 39.972656-17.917969 40-40zm-80 13.3125c-9.929688.019531-19.675781-2.6875-28.167969-7.832031-12.203125-7.34375-27.460937-7.34375-39.664062 0-17.328125 10.433593-39.007813 10.433593-56.335938 0-12.203125-7.34375-27.460937-7.34375-39.664062 0-17.328125 10.433593-39.007813 10.433593-56.335938 0-12.203125-7.34375-27.460937-7.34375-39.664062 0-17.328125 10.433593-39.007813 10.433593-56.335938 0-5.980469-3.613281-12.84375-5.507813-19.832031-5.480469-4.417969 0-8-3.582031-8-8s3.582031-8 8-8c9.929688-.03125 19.675781 2.675781 28.167969 7.824219 12.203125 7.34375 27.460937 7.34375 39.664062 0 17.328125-10.441407 39.007813-10.441407 56.335938 0 12.203125 7.34375 27.460937 7.34375 39.664062 0 17.328125-10.441407 39.007813-10.441407 56.335938 0 12.203125 7.34375 27.460937 7.34375 39.664062 0 17.328125-10.441407 39.007813-10.441407 56.335938 0 12.203125 7.34375 27.460937 7.34375 39.664062 0 8.492188-5.148438 18.238281-7.855469 28.167969-7.824219 4.417969 0 8 3.582031 8 8s-3.582031 8-8 8c-6.988281-.027344-13.851562 1.867188-19.832031 5.480469-8.492188 5.144531-18.238281 7.851562-28.167969 7.832031zm0 0"/></svg>