<?xml version="1.0" encoding="iso-8859-1"?>
<!-- Generator: Adobe Illustrator 19.0.0, SVG Export Plug-In . SVG Version: 6.00 Build 0)  -->
<svg xmlns="http://www.w3.org/2000/svg" xmlns:xlink="http://www.w3.org/1999/xlink" version="1.1" id="Layer_1" x="0px" y="0px" viewBox="0 0 499.04 499.04" style="enable-background:new 0 0 499.04 499.04;" xml:space="preserve">
<g>
	
		<rect x="173.92" y="117.263" transform="matrix(-0.7071 0.7071 -0.7071 -0.7071 453.0677 62.8595)" style="fill:#F9BA48;" width="79.191" height="16"/>
	
		<rect x="165.635" y="153.291" transform="matrix(-0.7071 0.7071 -0.7071 -0.7071 512.691 110.2186)" style="fill:#F9BA48;" width="135.767" height="16"/>
	
		<rect x="226.624" y="165.276" transform="matrix(-0.7071 0.7071 -0.7071 -0.7071 596.3081 99.5533)" style="fill:#F9BA48;" width="101.823" height="16"/>
	<path style="fill:#F9BA48;" d="M313.52,457.296c-66.048,0-147.408-8.6-190.72-75.656l-2.8-4.344l2.808-4.344   c43.304-67.056,124.664-75.656,190.712-75.656c66.184,0,139.664,8.992,182.72,75.656l2.8,4.344l-2.808,4.344   C453.184,448.304,379.704,457.296,313.52,457.296z"/>
</g>
<g>
	<path style="fill:#333333;" d="M489.52,89.296v-16c-46.768,0-89,23.328-120.032,65.952c-30.296-41.304-76.2-70.768-127.968-83.264   V1.744l-67.024,47.88C103.824,53,41.696,88.736,2.8,148.944L0,153.296l2.808,4.344c27.92,43.224,67.816,73.84,114.24,88.936   l0.92,1.376c0.144-0.096,0.52-0.36,1.056-0.736c12.432,3.912,25.32,6.736,38.568,8.376l-0.304,0.488l76.24,47.656v-51.408   c55.008-11.296,104.12-41.568,135.968-84.976c31.024,42.616,73.264,65.944,120.024,65.944v-16c-31.176,0-48-32.976-48-64   S458.344,89.296,489.52,89.296z M225.52,52.744c-7.864-1.336-15.816-2.312-23.864-2.864l23.864-17.04V52.744z M217.52,274.856   l-28.288-17.672c9.528-0.152,18.968-0.856,28.288-2.112V274.856z M185.52,241.296c-17.944,0-35.328-2.288-51.944-6.608   c15.2-15.112,35.944-42.76,35.944-81.392c0-16.832-1.056-34.696-8.736-51.352l-14.528,6.704c6.032,13.08,7.264,27.304,7.264,44.648   c0,38.472-25.136,65.08-37.6,75.912c-38.816-14.072-72.392-40.04-96.8-75.912c38.104-56,98.456-88,166.4-88   c70.704,0,137.008,33.584,174.392,88C322.528,207.712,256.224,241.296,185.52,241.296z M425.52,153.296   c0,19.152,5.472,38.888,16.008,53.968c-23.808-10.4-45.12-28.696-62.408-53.968c17.288-25.272,38.6-43.568,62.408-53.968   C430.992,114.408,425.52,134.144,425.52,153.296z"/>
	<path style="fill:#333333;" d="M97.52,113.296c-13.232,0-24,10.768-24,24s10.768,24,24,24s24-10.768,24-24   S110.752,113.296,97.52,113.296z M97.52,145.296c-4.416,0-8-3.584-8-8s3.584-8,8-8s8,3.584,8,8S101.936,145.296,97.52,145.296z"/>
	<path style="fill:#333333;" d="M9.52,321.296v16c30.52,0,40,29.32,40,40s-9.48,40-40,40v16c57.632,0,98.936-8.64,126.72-51.656   l2.808-4.344l-2.808-4.336C108.464,329.936,67.16,321.296,9.52,321.296z M50.288,415.12c10.504-11.992,15.232-27.344,15.232-37.824   s-4.728-25.832-15.232-37.824c30.056,3.944,52.592,14.168,69.56,37.824C102.88,400.944,80.344,411.168,50.288,415.12z"/>
	<path style="fill:#333333;" d="M345.52,377.296c0-15.824,6.528-29.072,12.68-33.512l-9.36-12.968   c-11.552,8.336-19.32,27.016-19.32,46.48c0,49.784,41.128,68.816,62.864,71.92l2.264-15.84   C392.648,433.096,345.52,425.8,345.52,377.296z"/>
	<path style="fill:#333333;" d="M401.52,337.296c-13.232,0-24,10.768-24,24s10.768,24,24,24s24-10.768,24-24   S414.752,337.296,401.52,337.296z M401.52,369.296c-4.416,0-8-3.584-8-8s3.584-8,8-8s8,3.584,8,8S405.936,369.296,401.52,369.296z"/>
	<path style="fill:#333333;" d="M281.736,257.296c-13.352,0-24.208,10.856-24.208,24.208v31.792h16v-31.792   c0-4.528,3.68-8.208,8.208-8.208c2.504,0,4.84,1.128,6.408,3.088l27.136,33.912l12.496-10l-27.144-33.912   C296.008,260.608,289.12,257.296,281.736,257.296z"/>
	<path style="fill:#333333;" d="M296.832,478.672c-1.672,1.672-3.984,2.624-6.344,2.624c-4.944,0-8.968-4.024-8.968-8.968v-31.032   h-16v31.032c0,13.768,11.2,24.968,24.968,24.968c6.576,0,13.008-2.664,17.656-7.312l35.032-35.032l-11.312-11.312L296.832,478.672z   "/>
	<rect x="297.52" y="369.296" style="fill:#333333;" width="16" height="16"/>
	<rect x="265.52" y="369.296" style="fill:#333333;" width="16" height="16"/>
	<rect x="233.52" y="369.296" style="fill:#333333;" width="16" height="16"/>
	<rect x="201.52" y="369.296" style="fill:#333333;" width="16" height="16"/>
	<rect x="169.52" y="369.296" style="fill:#333333;" width="16" height="16"/>
	<rect x="313.52" y="337.296" style="fill:#333333;" width="16" height="16"/>
	<rect x="281.52" y="337.296" style="fill:#333333;" width="16" height="16"/>
	<rect x="249.52" y="337.296" style="fill:#333333;" width="16" height="16"/>
	<rect x="217.52" y="337.296" style="fill:#333333;" width="16" height="16"/>
	<rect x="185.52" y="337.296" style="fill:#333333;" width="16" height="16"/>
	<rect x="313.52" y="401.296" style="fill:#333333;" width="16" height="16"/>
	<rect x="281.52" y="401.296" style="fill:#333333;" width="16" height="16"/>
	<rect x="249.52" y="401.296" style="fill:#333333;" width="16" height="16"/>
	<rect x="217.52" y="401.296" style="fill:#333333;" width="16" height="16"/>
	<rect x="185.52" y="401.296" style="fill:#333333;" width="16" height="16"/>
</g>
<g>
</g>
<g>
</g>
<g>
</g>
<g>
</g>
<g>
</g>
<g>
</g>
<g>
</g>
<g>
</g>
<g>
</g>
<g>
</g>
<g>
</g>
<g>
</g>
<g>
</g>
<g>
</g>
<g>
</g>
</svg>
