<svg height="448pt" viewBox="0 0 448.03783 448" width="448pt" xmlns="http://www.w3.org/2000/svg"><path d="m208.082031 227.820312-148.597656-86.195312c-27.019531 53.917969-25.824219 117.667969 3.199219 170.53125zm-56.046875-12h16v16h-16zm-32-8c8.835938 0 16 7.160157 16 16 0 8.835938-7.164062 16-16 16-8.835937 0-16-7.164062-16-16 0-8.839843 7.164063-16 16-16zm-40-40c8.835938 0 16 7.160157 16 16 0 8.835938-7.164062 16-16 16-8.835937 0-16-7.164062-16-16 0-8.839843 7.164063-16 16-16zm-16 56h16v16h-16zm8 32c0 4.417969 3.582032 8 8 8 4.417969 0 8-3.582031 8-8h16c0 13.253907-10.746094 24-24 24s-24-10.746093-24-24zm0 0"/><path d="m57.148438 333.867188-20.800782 12.046874c39.769532 61.132813 106.804688 99.074219 179.6875 101.703126v-24c-64.320312-2.601563-123.457031-36.007813-158.886718-89.75zm0 0"/><path d="m24.035156 223.820312c-.019531-31.359374 7.378906-62.277343 21.597656-90.226562l-20.796874-12.054688c-34.214844 66.34375-33.011719 145.398438 3.199218 210.671876l20.75-12c-16.289062-29.511719-24.808594-62.683594-24.75-96.390626zm0 0"/><path d="m385.386719 312.15625c29.023437-52.863281 30.21875-116.613281 3.199219-170.53125l-148.597657 86.195312zm-17.351563-32.335938c-8.835937 0-16-7.164062-16-16 0-8.839843 7.164063-16 16-16 8.835938 0 16 7.160157 16 16 0 8.835938-7.164062 16-16 16zm16-48h-16v-16h16zm-16-56c13.253906 0 24 10.742188 24 24h-16c0-4.417968-3.582031-8-8-8-4.417968 0-8 3.582032-8 8h-16c0-13.257812 10.746094-24 24-24zm-40 56h16v16h-16zm-24-24c8.835938 0 16 7.160157 16 16 0 8.835938-7.164062 16-16 16-8.835937 0-16-7.164062-16-16 0-8.839843 7.164063-16 16-16zm0 0"/><path d="m216.035156 407.617188v-165.910157l-145.039062 84.128907c32.539062 48.828124 86.417968 79.207031 145.039062 81.78125zm-40-127.796876h16v16h-16zm24 40v16h-16v-16zm-8 32c8.835938 0 16 7.160157 16 16 0 8.835938-7.164062 16-16 16-8.835937 0-16-7.164062-16-16 0-8.839843 7.164063-16 16-16zm-32-64v16c-4.417968 0-8 3.582032-8 8 0 4.417969 3.582032 8 8 8v16c-13.253906 0-24-10.746093-24-24 0-13.257812 10.746094-24 24-24zm-32 48c8.835938 0 16 7.160157 16 16 0 8.835938-7.164062 16-16 16-8.835937 0-16-7.164062-16-16 0-8.839843 7.164063-16 16-16zm0 0"/><path d="m377.074219 325.835938-145.039063-84.128907v165.910157c58.621094-2.574219 112.5-32.953126 145.039063-81.78125zm-137.039063-62.015626h16v16h-16zm24 120c-8.835937 0-16-7.164062-16-16 0-8.839843 7.164063-16 16-16 8.835938 0 16 7.160157 16 16 0 8.835938-7.164062 16-16 16zm8-56c-8.835937 0-16-7.164062-16-16 0-8.839843 7.164063-16 16-16 8.835938 0 16 7.160157 16 16 0 8.835938-7.164062 16-16 16zm48 40h-16v-16h16zm16-32c0-4.417968-3.582031-8-8-8-4.417968 0-8 3.582032-8 8h-16c0-13.257812 10.746094-24 24-24s24 10.742188 24 24zm0 0"/><path d="m232.035156 40.019531v173.910157l148.800782-86.292969c-31.980469-52.097657-87.730469-84.925781-148.800782-87.617188zm32 135.800781h-16v-16h16zm8-40h-16v-16h16zm-16-40c-8.835937 0-16-7.164062-16-16 0-8.839843 7.164063-16 16-16 8.835938 0 16 7.160157 16 16 0 8.835938-7.164062 16-16 16zm32 64v-16c4.417969 0 8-3.582031 8-8 0-4.417968-3.582031-8-8-8v-16c13.253906 0 24 10.742188 24 24 0 13.253907-10.746094 24-24 24zm32-48c-8.835937 0-16-7.164062-16-16 0-8.839843 7.164063-16 16-16 8.835938 0 16 7.160157 16 16 0 8.835938-7.164062 16-16 16zm0 0"/><path d="m394.667969 119.601562 20.796875-12.046874c-39.164063-64.414063-108.09375-104.820313-183.429688-107.5351568v23.9999998c66.769532 2.710938 127.777344 38.566407 162.632813 95.582031zm0 0"/><path d="m32.632812 107.554688 20.800782 12.046874c34.847656-57.003906 95.84375-92.859374 162.601562-95.582031v-23.9999998c-75.328125 2.7265628-144.238281 43.1328128-183.402344 107.5351568zm0 0"/><path d="m232.035156 423.617188v24c72.867188-2.636719 139.894532-40.582032 179.65625-101.703126l-20.800781-12.046874c-35.425781 53.734374-94.546875 87.136718-158.855469 89.75zm0 0"/><path d="m423.234375 121.539062-20.800781 12.054688c29.894531 58.890625 28.695312 128.757812-3.199219 186.585938l20.753906 12c36.214844-65.257813 37.433594-144.296876 3.246094-210.640626zm0 0"/><path d="m67.234375 127.636719 148.800781 86.292969v-173.910157c-61.070312 2.691407-116.820312 35.519531-148.800781 87.617188zm132.800781 48.183593h-16v-16h16zm-16-112c8.835938 0 16 7.160157 16 16 0 8.835938-7.164062 16-16 16-8.835937 0-16-7.164062-16-16 0-8.839843 7.164063-16 16-16zm-16 48c8.835938 0 16 7.160157 16 16 0 8.835938-7.164062 16-16 16-8.835937 0-16-7.164062-16-16 0-8.839843 7.164063-16 16-16zm-40-32h16v16h-16zm-16 32c0 4.417969 3.582032 8 8 8 4.417969 0 8-3.582031 8-8h16c0 13.253907-10.746094 24-24 24s-24-10.746093-24-24zm0 0"/></svg>